<svg width="181" height="181" viewBox="0 0 181 181" fill="none" xmlns="http://www.w3.org/2000/svg">
<path d="M7.36401 34.175C11.4132 31.691 14.9805 28.4961 17.894 24.744C22.671 18.559 25.304 14.701 24.936 8.454C24.568 2.207 20.955 0.0640031 18.567 0.00300308C14.467 -0.118997 12.627 5.147 12.627 5.147C12.627 5.147 11.219 0.186004 6.80901 0.00200363C3.56301 0.00200363 -0.233985 3.249 0.00901507 8.638C0.256015 20.826 9.19801 20.026 7.36401 34.175Z" fill="#ABBD00"/>
<path d="M45.825 136.635C45.825 143.145 46.325 149.288 46.54 153.015H46.43C45.385 149.97 43.624 145.402 42.469 142.673L36.747 128.812H30.147V164.198H36.47V156.27C36.47 149.13 36.195 143.67 35.975 140.1H36.085C37.155 143.72 38.4236 147.278 39.885 150.758L45.552 164.198H52.152V128.812H45.825V136.635Z" fill="#ABBD00"/>
<path d="M67.123 128.812L59.09 164.198H66.078L67.728 156.113H74.385L75.985 164.198H82.972L75.765 128.812H67.123ZM68.444 150.758L69.819 143.358C70.204 141.31 70.755 137.688 71.14 135.325H71.305C71.635 137.635 72.13 141.205 72.515 143.358L73.726 150.758H68.444Z" fill="#ABBD00"/>
<path d="M97.554 128.812H90.347V164.198H97.554V128.812Z" fill="#ABBD00"/>
<path d="M114.872 128.812H107.665V164.198H124.336V158.37H114.873L114.872 128.812Z" fill="#ABBD00"/>
<path d="M141.872 143.67C137.911 141.36 136.81 140.258 136.81 138.157C136.81 136.267 138.296 134.482 141.376 134.482C143.015 134.456 144.631 134.873 146.053 135.689L147.208 129.757C145.391 128.883 143.392 128.451 141.376 128.497C133.676 128.497 129.712 133.222 129.712 138.897C129.712 142.097 131.637 145.827 136.699 148.767C139.835 150.71 141.486 151.967 141.486 154.542C141.486 156.852 139.781 158.532 136.424 158.532C134.315 158.515 132.235 158.048 130.321 157.163L129.276 163.095C131.515 164.068 133.935 164.551 136.376 164.513C143.584 164.513 148.591 160.26 148.591 153.802C148.591 150.075 146.831 146.502 141.879 143.669" fill="#ABBD00"/>
<path d="M5.82899 48.918C5.64499 85.433 5.584 165.23 5.584 165.23C5.584 165.23 5.523 169.272 5.584 180.112C19.67 180.112 20.527 165.291 20.527 165.291V35.215C17.105 35.258 5.827 39.315 5.827 48.915" fill="#FFFFFE"/>
<path d="M45.881 35.215C29.346 35.215 27.693 48.476 27.693 49.362V70.276C27.693 70.276 29.025 70.414 35.685 70.414C36.5333 70.4771 37.3855 70.365 38.1886 70.0847C38.9916 69.8043 39.7285 69.3617 40.3531 68.7844C40.9778 68.2071 41.477 67.5074 41.8197 66.7289C42.1624 65.9503 42.3412 65.1096 42.345 64.259L42.483 53.419C42.4542 53.0346 42.5092 52.6485 42.6444 52.2875C42.7796 51.9265 42.9917 51.5992 43.2659 51.3283C43.5401 51.0573 43.87 50.8493 44.2327 50.7186C44.5953 50.5878 44.982 50.5374 45.366 50.571C45.7602 50.5496 46.1545 50.6113 46.5233 50.7521C46.8921 50.8929 47.2272 51.1096 47.5068 51.3883C47.7865 51.6669 48.0045 52.0012 48.1466 52.3694C48.2888 52.7377 48.352 53.1317 48.332 53.526C48.332 53.526 48.21 69.877 48.21 72.939C47.781 72.572 45.369 72.694 45.369 72.694C26.969 72.694 27.695 88.494 27.695 88.494V105.642C27.695 105.642 27.509 122.302 45.367 122.302C63.225 122.302 63.041 105.522 63.041 105.522C63.041 105.522 62.954 48.844 63.028 50.895C63.102 52.946 64.128 35.646 45.88 35.217L45.881 35.215ZM48.33 105.277C48.1769 105.934 47.8062 106.519 47.278 106.938C46.7498 107.358 46.0954 107.586 45.421 107.586C44.7467 107.586 44.0923 107.358 43.5641 106.938C43.0359 106.519 42.6651 105.934 42.512 105.277V87.086H42.537C42.7522 86.4938 43.1445 85.9821 43.6605 85.6206C44.1766 85.259 44.7914 85.0651 45.4215 85.0651C46.0517 85.0651 46.6665 85.259 47.1825 85.6206C47.6986 85.9821 48.0909 86.4938 48.306 87.086H48.331L48.33 105.277Z" fill="#FFFFFE"/>
<path d="M131.128 35.215C114.593 35.215 112.94 48.476 112.94 49.362V70.276C112.94 70.276 114.272 70.414 120.932 70.414C121.78 70.4771 122.632 70.365 123.436 70.0847C124.239 69.8043 124.975 69.3617 125.6 68.7844C126.225 68.2071 126.724 67.5074 127.067 66.7289C127.409 65.9503 127.588 65.1096 127.592 64.259L127.73 53.419C127.701 53.0346 127.756 52.6485 127.891 52.2875C128.027 51.9265 128.239 51.5992 128.513 51.3283C128.787 51.0573 129.117 50.8493 129.48 50.7186C129.842 50.5878 130.229 50.5374 130.613 50.571C131.007 50.5496 131.401 50.6113 131.77 50.7521C132.139 50.8929 132.474 51.1097 132.754 51.3883C133.033 51.6669 133.251 52.0012 133.393 52.3695C133.535 52.7378 133.598 53.1318 133.578 53.526C133.578 53.526 133.456 69.877 133.456 72.939C133.027 72.572 130.615 72.694 130.615 72.694C112.215 72.694 112.941 88.494 112.941 88.494V105.642C112.941 105.642 112.756 122.302 130.613 122.302C148.47 122.302 148.287 105.522 148.287 105.522C148.287 105.522 148.2 48.844 148.274 50.895C148.348 52.946 149.374 35.646 131.127 35.217L131.128 35.215ZM133.576 105.277C133.423 105.934 133.052 106.519 132.524 106.938C131.996 107.358 131.341 107.586 130.667 107.586C129.993 107.586 129.338 107.358 128.81 106.938C128.282 106.519 127.911 105.934 127.758 105.277V87.086H127.783C127.998 86.4938 128.39 85.9821 128.907 85.6206C129.423 85.259 130.037 85.0651 130.668 85.0651C131.298 85.0651 131.912 85.259 132.429 85.6206C132.945 85.9821 133.337 86.4938 133.552 87.086H133.576V105.277Z" fill="#FFFFFE"/>
<path d="M90.939 13.226V37.665C88.367 36.471 70.316 38.216 70.316 53.648V107.296C70.316 107.296 71.235 122.296 88.045 122.296C104.855 122.296 105.774 107.296 105.774 107.296V0C100.308 0 90.938 5.744 90.938 13.23L90.939 13.226ZM90.938 104.988C90.7849 105.645 90.4142 106.23 89.886 106.649C89.3578 107.069 88.7033 107.297 88.029 107.297C87.3547 107.297 86.7003 107.069 86.1721 106.649C85.6439 106.23 85.2731 105.645 85.12 104.988V52.16C85.2731 51.5033 85.6439 50.9177 86.1721 50.4985C86.7003 50.0793 87.3547 49.8512 88.029 49.8512C88.7033 49.8512 89.3578 50.0793 89.886 50.4985C90.4142 50.9177 90.7849 51.5033 90.938 52.16V104.988Z" fill="#FFFFFE"/>
<path d="M169.516 32.187C167.429 32.1801 165.388 32.7929 163.65 33.9479C161.912 35.1028 160.556 36.7478 159.755 38.6742C158.953 40.6007 158.741 42.7218 159.147 44.7686C159.552 46.8155 160.556 48.6959 162.032 50.1713C163.507 51.6468 165.388 52.6508 167.434 53.0562C169.481 53.4616 171.602 53.25 173.529 52.4483C175.455 51.6466 177.1 50.2909 178.255 48.5531C179.41 46.8152 180.023 44.7736 180.016 42.687C180.016 39.9022 178.91 37.2315 176.941 35.2624C174.971 33.2932 172.301 32.187 169.516 32.187ZM169.516 51.036C167.845 51.1184 166.188 50.6975 164.759 49.8276C163.331 48.9577 162.196 47.679 161.502 46.1569C160.808 44.6348 160.587 42.9395 160.867 41.2904C161.148 39.6413 161.917 38.1144 163.075 36.9072C164.233 35.7001 165.727 34.8683 167.363 34.5197C168.999 34.171 170.702 34.3214 172.251 34.9515C173.801 35.5816 175.126 36.6623 176.054 38.0537C176.983 39.4452 177.472 41.0833 177.459 42.756C177.496 43.8251 177.319 44.8909 176.937 45.8903C176.556 46.8896 175.978 47.8023 175.237 48.5743C174.496 49.3463 173.609 49.9619 172.626 50.3847C171.643 50.8076 170.586 51.029 169.516 51.036" fill="#FFFFFE"/>
<path d="M171.67 43.025V42.891C172.256 42.7632 172.786 42.4534 173.185 42.006C173.584 41.5586 173.831 40.9964 173.891 40.4C173.906 39.9699 173.816 39.5428 173.628 39.1555C173.44 38.7683 173.161 38.4328 172.814 38.178C171.784 37.4907 170.547 37.1816 169.314 37.303C168.05 37.3136 166.79 37.4263 165.544 37.64V48.14H167.766V43.967H168.91C170.257 43.967 170.93 44.505 171.132 45.583C171.235 46.4796 171.509 47.348 171.94 48.141H174.363C173.936 47.3466 173.662 46.4788 173.555 45.583C173.218 44.169 172.748 43.361 171.671 43.025H171.67ZM168.978 42.217H167.834V39.255C168.276 39.1588 168.728 39.1138 169.18 39.121C170.795 39.121 171.402 39.727 171.402 40.737C171.402 41.814 170.324 42.218 168.978 42.218" fill="#FFFFFE"/>
</svg>
