<svg xmlns="http://www.w3.org/2000/svg" width="180.017" height="180.111" viewBox="0 0 180.017 180.111">
  <g id="Gruppe_1" data-name="Gruppe 1" transform="translate(-26.136 -51.774)">
    <path id="Pfad_1" data-name="Pfad 1" d="M33.5,85.949A39.447,39.447,0,0,0,44.03,76.518c4.777-6.185,7.41-10.043,7.042-16.29s-3.981-8.39-6.369-8.451c-4.1-.122-5.94,5.144-5.94,5.144s-1.408-4.961-5.818-5.145c-3.246,0-7.043,3.247-6.8,8.636C26.392,72.6,35.334,71.8,33.5,85.949" transform="translate(0 0)" fill="#abbd00"/>
    <path id="Pfad_2" data-name="Pfad 2" d="M123.855,410.159c0,6.51.5,12.653.715,16.38h-.11c-1.045-3.045-2.806-7.613-3.961-10.342l-5.722-13.861h-6.6v35.386H114.5v-7.928c0-7.14-.275-12.6-.495-16.17h.11a102.789,102.789,0,0,0,3.8,10.658l5.667,13.44h6.6V402.336h-6.327Z" transform="translate(-51.894 -221.75)" fill="#abbd00"/>
    <path id="Pfad_3" data-name="Pfad 3" d="M194.982,402.335l-8.033,35.386h6.988l1.65-8.085h6.657l1.6,8.085h6.987l-7.207-35.386Zm1.321,21.946,1.375-7.4c.385-2.048.936-5.67,1.321-8.033h.165c.33,2.31.825,5.88,1.21,8.033l1.211,7.4Z" transform="translate(-101.723 -221.749)" fill="#abbd00"/>
    <rect id="Rechteck_5" data-name="Rechteck 5" width="7.207" height="35.386" transform="translate(116.483 180.586)" fill="#abbd00"/>
    <path id="Pfad_4" data-name="Pfad 4" d="M326.353,402.336h-7.207v35.386h16.671v-5.828h-9.463Z" transform="translate(-185.345 -221.75)" fill="#abbd00"/>
    <path id="Pfad_5" data-name="Pfad 5" d="M390.551,416.652c-3.961-2.31-5.062-3.412-5.062-5.513,0-1.89,1.486-3.675,4.566-3.675a9.1,9.1,0,0,1,4.677,1.207l1.155-5.932a12.778,12.778,0,0,0-5.832-1.26c-7.7,0-11.664,4.725-11.664,10.4,0,3.2,1.925,6.93,6.987,9.87,3.136,1.943,4.787,3.2,4.787,5.775,0,2.31-1.705,3.99-5.062,3.99A14.831,14.831,0,0,1,379,430.145l-1.045,5.932a17.144,17.144,0,0,0,7.1,1.418c7.208,0,12.215-4.253,12.215-10.711,0-3.727-1.76-7.3-6.712-10.133" transform="translate(-222.543 -221.208)" fill="#abbd00"/>
    <path id="Pfad_6" data-name="Pfad 6" d="M41.531,161.316c-.184,36.515-.245,116.312-.245,116.312s-.061,4.042,0,14.882c14.086,0,14.943-14.821,14.943-14.821V147.613c-3.422.043-14.7,4.1-14.7,13.7" transform="translate(-9.566 -60.624)" fill="#7b7a78"/>
    <path id="Pfad_7" data-name="Pfad 7" d="M119.682,147.613c-16.535,0-18.188,13.261-18.188,14.147v20.914s1.332.138,7.992.138a6.2,6.2,0,0,0,6.66-6.155l.138-10.84a2.659,2.659,0,0,1,2.883-2.848,2.817,2.817,0,0,1,2.966,2.955s-.122,16.351-.122,19.413c-.429-.367-2.841-.245-2.841-.245-18.4,0-17.674,15.8-17.674,15.8V218.04S101.31,234.7,119.168,234.7s17.674-16.78,17.674-16.78-.087-56.678-.013-54.627,1.1-15.249-17.148-15.678m2.45,70.06a2.987,2.987,0,0,1-5.818,0V199.484h.025a3.069,3.069,0,0,1,5.769,0h.025Z" transform="translate(-47.665 -60.624)" fill="#7b7a78"/>
    <path id="Pfad_8" data-name="Pfad 8" d="M351.682,147.613c-16.535,0-18.188,13.261-18.188,14.147v20.914s1.332.138,7.992.138a6.2,6.2,0,0,0,6.66-6.155l.138-10.84a2.659,2.659,0,0,1,2.883-2.848,2.816,2.816,0,0,1,2.965,2.955s-.122,16.351-.122,19.413c-.429-.367-2.841-.245-2.841-.245-18.4,0-17.674,15.8-17.674,15.8V218.04S333.31,234.7,351.167,234.7s17.674-16.78,17.674-16.78-.087-56.678-.013-54.627,1.1-15.249-17.147-15.678m2.449,70.06a2.987,2.987,0,0,1-5.818,0V199.484h.025a3.069,3.069,0,0,1,5.769,0h.024Z" transform="translate(-194.418 -60.624)" fill="#7b7a78"/>
    <path id="Pfad_9" data-name="Pfad 9" d="M238.123,65V89.439c-2.572-1.194-20.623.551-20.623,15.983V159.07s.919,15,17.729,15,17.729-15,17.729-15V51.774c-5.466,0-14.836,5.744-14.836,13.23m0,91.758a2.987,2.987,0,0,1-5.818,0V103.934a2.987,2.987,0,0,1,5.818,0Z" transform="translate(-121.048)" fill="#7b7a78"/>
    <path id="Pfad_10" data-name="Pfad 10" d="M469.163,139.371a10.535,10.535,0,1,0,10.5,10.5,10.5,10.5,0,0,0-10.5-10.5m0,18.849a8.355,8.355,0,1,1,7.943-8.28,8,8,0,0,1-7.943,8.28" transform="translate(-273.511 -55.41)" fill="#7b7a78"/>
    <path id="Pfad_11" data-name="Pfad 11" d="M482.79,159.017v-.134a2.841,2.841,0,0,0,2.221-2.491,2.644,2.644,0,0,0-1.077-2.222,5.361,5.361,0,0,0-3.5-.875,23.457,23.457,0,0,0-3.77.337v10.5h2.222v-4.173h1.144c1.347,0,2.02.538,2.222,1.616a7.036,7.036,0,0,0,.808,2.558h2.423a7.19,7.19,0,0,1-.808-2.558c-.337-1.414-.807-2.222-1.884-2.558m-2.693-.808h-1.144v-2.962a5.892,5.892,0,0,1,1.346-.134c1.615,0,2.222.606,2.222,1.616,0,1.077-1.078,1.481-2.424,1.481" transform="translate(-284.984 -64.218)" fill="#7b7a78"/>
  </g>
</svg>
