<?xml version="1.0" standalone="no"?>
<svg xmlns:xlink="http://www.w3.org/1999/xlink" id="wave" style="transform:rotate(180deg); transition: 0.3s" viewBox="0 0 1440 490" version="1.1" xmlns="http://www.w3.org/2000/svg"><defs><linearGradient id="sw-gradient-0" x1="0" x2="0" y1="1" y2="0"><stop stop-color="rgba(243, 106, 62, 1)" offset="0%"/><stop stop-color="rgba(255, 179, 11, 1)" offset="100%"/></linearGradient></defs><path style="transform:translate(0, 0px); opacity:1" fill="#f9f9f8" d="M0,98L60,147C120,196,240,294,360,277.7C480,261,600,131,720,65.3C840,0,960,0,1080,49C1200,98,1320,196,1440,212.3C1560,229,1680,163,1800,147C1920,131,2040,163,2160,212.3C2280,261,2400,327,2520,343C2640,359,2760,327,2880,310.3C3000,294,3120,294,3240,310.3C3360,327,3480,359,3600,326.7C3720,294,3840,196,3960,138.8C4080,82,4200,65,4320,73.5C4440,82,4560,114,4680,114.3C4800,114,4920,82,5040,98C5160,114,5280,180,5400,196C5520,212,5640,180,5760,171.5C5880,163,6000,180,6120,179.7C6240,180,6360,163,6480,138.8C6600,114,6720,82,6840,73.5C6960,65,7080,82,7200,98C7320,114,7440,131,7560,163.3C7680,196,7800,245,7920,236.8C8040,229,8160,163,8280,122.5C8400,82,8520,65,8580,57.2L8640,49L8640,490L8580,490C8520,490,8400,490,8280,490C8160,490,8040,490,7920,490C7800,490,7680,490,7560,490C7440,490,7320,490,7200,490C7080,490,6960,490,6840,490C6720,490,6600,490,6480,490C6360,490,6240,490,6120,490C6000,490,5880,490,5760,490C5640,490,5520,490,5400,490C5280,490,5160,490,5040,490C4920,490,4800,490,4680,490C4560,490,4440,490,4320,490C4200,490,4080,490,3960,490C3840,490,3720,490,3600,490C3480,490,3360,490,3240,490C3120,490,3000,490,2880,490C2760,490,2640,490,2520,490C2400,490,2280,490,2160,490C2040,490,1920,490,1800,490C1680,490,1560,490,1440,490C1320,490,1200,490,1080,490C960,490,840,490,720,490C600,490,480,490,360,490C240,490,120,490,60,490L0,490Z"/></svg>