<svg xmlns="http://www.w3.org/2000/svg" width="36" height="36" viewBox="0 0 36 36">
  <g id="Gruppe_164" data-name="Gruppe 164" transform="translate(-1613 -92)">
    <circle id="Ellipse_1" data-name="Ellipse 1" cx="18" cy="18" r="18" transform="translate(1613 92)" fill="#afcb05"/>
    <g id="Gruppe_4" data-name="Gruppe 4" transform="translate(1623.518 100.185)">
      <path id="Pfad_14" data-name="Pfad 14" d="M-392.96,219.816c.285.089.585.1.873.177a2.956,2.956,0,0,1,2.122,1.99,7.84,7.84,0,0,1,.338,2.738A5.1,5.1,0,0,1-391,228.255a3.438,3.438,0,0,1-2.575,1.162,3.453,3.453,0,0,1-2.576-1.161,4.907,4.907,0,0,1-1.332-2.981,7.967,7.967,0,0,1,.275-3.218,3.023,3.023,0,0,1,2.631-2.166,1.032,1.032,0,0,0,.388-.074Z" transform="translate(401.062 -219.816)" fill="#fff"/>
      <path id="Pfad_15" data-name="Pfad 15" d="M-440.323,371.468a17.522,17.522,0,0,1-4.494-.5,6.575,6.575,0,0,1-2.383-1.089l-.03-.023a1.245,1.245,0,0,1-.572-1.2c.088-1,.056-2,.238-2.994a4.164,4.164,0,0,1,.987-2.2,4.028,4.028,0,0,1,1.374-.92,12.9,12.9,0,0,1,2.627-.729.158.158,0,0,1,.154.048,2.9,2.9,0,0,0,2.1.757,2.894,2.894,0,0,0,2.1-.76.157.157,0,0,1,.155-.044,12.964,12.964,0,0,1,2.609.722,3.655,3.655,0,0,1,1.854,1.56,5.194,5.194,0,0,1,.555,1.758,25.716,25.716,0,0,1,.2,3.19.548.548,0,0,1-.143.4,4.325,4.325,0,0,1-1.7,1.141,11.277,11.277,0,0,1-3,.731A21.323,21.323,0,0,1-440.323,371.468Z" transform="translate(447.809 -351.839)" fill="#fff"/>
    </g>
  </g>
</svg>
