<svg xmlns="http://www.w3.org/2000/svg" width="208" height="208" viewBox="0 0 208 208">
  <g id="Gruppe_183" data-name="Gruppe 183" transform="translate(745 -387)">
    <g id="Komponente_3_8" data-name="Komponente 3 – 8" transform="translate(-745 387)">
      <path id="Rechteck_18" data-name="Rechteck 18" d="M40,0H168a40,40,0,0,1,40,40V208a0,0,0,0,1,0,0H40A40,40,0,0,1,0,168V40A40,40,0,0,1,40,0Z" fill="#f7fae5"/>
    </g>
    <g id="Gruppe_168" data-name="Gruppe 168" transform="translate(-1672.064 -278.316)">
      <path id="Pfad_29" data-name="Pfad 29" d="M1074.147,778.937c-.281.172-.234.5-.331.75a5.491,5.491,0,0,1-5.107,3.554c-.658.006-1.461-.2-1.93.1-.4.258-.389,1.118-.6,1.7a8.816,8.816,0,0,1-16.915-1.124c-.136-.6-.359-.694-.891-.69-2.926.023-5.853.014-8.78.009-1.258,0-1.982-.655-1.966-1.753.015-1.055.731-1.683,1.946-1.685,3.013,0,6.025-.015,9.038.011a.837.837,0,0,0,.954-.69,8.812,8.812,0,0,1,16.628.014.843.843,0,0,0,.965.676c3.1,0,3.545-.426,3.545-3.5,0-3.127-.071-6.257.027-9.381.057-1.822-1.013-2.825-2.232-3.822-.244-.2-.4-.083-.592.062a9.951,9.951,0,0,1-6.316,1.809c-3.729-.039-7.46-.056-11.189,0a4.258,4.258,0,0,1-4.515-4.5c.121-2.174.009-4.36.037-6.54.007-.526-.134-.7-.671-.68q-1.935.057-3.873,0c-.547-.017-.673.173-.668.688.024,2.324.015,4.648.009,6.972a4.1,4.1,0,0,1-4.427,4.469c-6.628.017-13.256,0-19.883.011a6.363,6.363,0,0,1-5.045-2.156c-.165-.187-.291-.439-.62-.2-2.141,1.555-4.742,1.775-7.188,2.42-2.9.765-5.835,1.41-8.749,2.128a4.841,4.841,0,0,0-3.019,2.111c.328.224.647.1.945.126a1.832,1.832,0,0,1,1.821,1.715,1.751,1.751,0,0,1-1.733,1.77c-.714.049-1.434.036-2.15.019a.723.723,0,0,0-.775.505,4.128,4.128,0,0,0,3.659,5.953c1.089.035,2.181-.006,3.271.013a.654.654,0,0,0,.737-.518,8.816,8.816,0,0,1,16.746.012c.179.474.425.5.819.5q4.39-.012,8.78,0c1.241,0,2.024.676,2.019,1.726s-.785,1.712-2.034,1.713c-2.783,0-5.566.014-8.349-.009-.592,0-.873.089-1.019.781a8.8,8.8,0,0,1-17.139.118c-.167-.739-.466-.912-1.179-.91a19.687,19.687,0,0,1-4.288-.141,7.563,7.563,0,0,1-5.495-9.9,45.2,45.2,0,0,1,1.869-4.426,8.348,8.348,0,0,1,5.726-4.561c4.135-1.022,8.279-2.007,12.421-3a8.142,8.142,0,0,0,3.042-1.532q5-3.8,10.011-7.584a11.228,11.228,0,0,1,7.041-2.31q13.212.064,26.425,0a11.344,11.344,0,0,1,7.451,2.595c3.171,2.553,6.4,5.03,9.628,7.517,1.786,1.377,3.417,2.861,4.105,5.112Zm-48.034-17.031q4.948,0,9.9,0c1.15,0,1.193-.042,1.195-1.223,0-2.209-.026-4.418.017-6.626.013-.668-.213-.8-.833-.8-3.528.029-7.056.016-10.584.015a5.627,5.627,0,0,0-3.4,1.017c-2.749,2.018-5.454,4.1-8.185,6.14-.342.256-.359.452-.04.731a2.953,2.953,0,0,0,2.041.751C1019.515,761.9,1022.814,761.906,1026.113,761.906Zm39.261-1.271c-2.856-2.193-5.615-4.33-8.4-6.436a4.6,4.6,0,0,0-1.9-.76,35.467,35.467,0,0,0-5.057-.176c-.529-.031-.683.139-.676.672q.044,3.224,0,6.449c-.011.773.265,1.072,1.051,1.067,4.042-.024,8.083-.008,12.125-.015A4.913,4.913,0,0,0,1065.374,760.636Zm-64.757,21.439a5.3,5.3,0,0,0,5.367,5.308,5.387,5.387,0,0,0,5.323-5.3,5.472,5.472,0,0,0-5.366-5.38A5.378,5.378,0,0,0,1000.617,782.074Zm57.25,5.308a5.318,5.318,0,0,0,5.346-5.336,5.333,5.333,0,1,0-10.666-.023A5.313,5.313,0,0,0,1057.867,787.382Z" transform="translate(0 0)" fill="#8f9083"/>
      <path id="Pfad_30" data-name="Pfad 30" d="M1194.529,840.427c-.6,0-1.2.042-1.8-.011a1.723,1.723,0,0,1-.069-3.43,31.663,31.663,0,0,1,3.858,0,1.723,1.723,0,0,1-.1,3.429C1195.791,840.471,1195.158,840.428,1194.529,840.427Z" transform="translate(-157.964 -67.115)" fill="#8f9083"/>
      <path id="Pfad_31" data-name="Pfad 31" d="M1180.042,883.785a1.718,1.718,0,1,1,.073-3.436,1.718,1.718,0,0,1-.073,3.436Z" transform="translate(-148.124 -100.548)" fill="#8f9083"/>
    </g>
  </g>
</svg>
