<svg id="facebook" xmlns="http://www.w3.org/2000/svg" width="25.278" height="25.278" viewBox="0 0 25.278 25.278">
  <g id="Gruppe_59" data-name="Gruppe 59" transform="translate(0 0)">
    <path id="Pfad_68" data-name="Pfad 68" d="M22.172-1H1.107A2.086,2.086,0,0,0-1,1.107V22.172a2.086,2.086,0,0,0,2.107,2.106H22.172a2.086,2.086,0,0,0,2.107-2.107V1.107A2.086,2.086,0,0,0,22.172-1ZM11.639,23.436V15.01H8.269v-3.37h3.37V8.69a4.665,4.665,0,0,1,4.213-4.634h3.792v3.37h-3.37A1.241,1.241,0,0,0,15.01,8.69v2.949h4.213v3.37H15.01v8.426h-3.37Zm11.8-1.264a1.241,1.241,0,0,1-1.264,1.264h-6.32V15.852h4.213V10.8H15.852V8.69a.4.4,0,0,1,.421-.421h4.213V3.213H15.81A5.53,5.53,0,0,0,10.8,8.69V10.8H7.426v5.056H10.8v7.583H1.107A1.241,1.241,0,0,1-.157,22.172V1.107A1.241,1.241,0,0,1,1.107-.157H22.172a1.241,1.241,0,0,1,1.264,1.264V22.172Z" transform="translate(1 1)" fill="#7b7a78"/>
  </g>
</svg>
