<svg xmlns="http://www.w3.org/2000/svg" width="42.648" height="42.648" viewBox="0 0 42.648 42.648">
  <g id="Gruppe_177" data-name="Gruppe 177" transform="translate(-1622.176 -51.676)">
    <path id="Vereinigungsmenge_1" data-name="Vereinigungsmenge 1" d="M-2060.523,43.133l-14.5-14.5-14.5,14.5a4,4,0,0,1-5.656,0,4,4,0,0,1,0-5.656l14.5-14.5-14.5-14.5a4,4,0,0,1,0-5.656,4,4,0,0,1,5.656,0l14.5,14.5,14.5-14.5a4,4,0,0,1,5.656,0,4,4,0,0,1,0,5.656l-14.5,14.5,14.5,14.5a4,4,0,0,1,0,5.656,3.988,3.988,0,0,1-2.829,1.172A3.985,3.985,0,0,1-2060.523,43.133Z" transform="translate(3718.519 50.019)" fill="#fff"/>
  </g>
</svg>
