<svg xmlns="http://www.w3.org/2000/svg" width="41.651" height="37.056" viewBox="0 0 41.651 37.056">
  <path id="herz" d="M20.825,37.056a2.442,2.442,0,0,1-1.61-.605c-1.683-1.471-3.3-2.854-4.736-4.073l-.007-.006c-4.2-3.576-7.82-6.664-10.341-9.706C1.313,19.264,0,16.04,0,12.517A13.018,13.018,0,0,1,3.3,3.626,11.2,11.2,0,0,1,11.636,0,10.477,10.477,0,0,1,18.18,2.259a13.389,13.389,0,0,1,2.646,2.763,13.39,13.39,0,0,1,2.646-2.763A10.477,10.477,0,0,1,30.016,0a11.2,11.2,0,0,1,8.331,3.626,13.018,13.018,0,0,1,3.3,8.891c0,3.522-1.312,6.747-4.131,10.147C35,25.707,31.376,28.795,27.18,32.37c-1.434,1.222-3.059,2.606-4.745,4.081a2.444,2.444,0,0,1-1.61.6ZM11.636,2.44A8.787,8.787,0,0,0,5.1,5.28,10.59,10.59,0,0,0,2.44,12.517c0,2.963,1.1,5.612,3.57,8.591,2.386,2.879,5.935,5.9,10.045,9.406l.008.006c1.437,1.224,3.065,2.612,4.76,4.094,1.705-1.485,3.336-2.875,4.776-4.1,4.109-3.5,7.658-6.526,10.044-9.405,2.468-2.979,3.57-5.628,3.57-8.591A10.59,10.59,0,0,0,36.553,5.28a8.786,8.786,0,0,0-6.537-2.84,8.092,8.092,0,0,0-5.052,1.749,11.839,11.839,0,0,0-2.815,3.258,1.54,1.54,0,0,1-2.646,0,11.828,11.828,0,0,0-2.815-3.258A8.092,8.092,0,0,0,11.636,2.44Zm0,0" transform="translate(0 0)" fill="#afcb05"/>
</svg>
