<svg xmlns="http://www.w3.org/2000/svg" width="25.278" height="25.278" viewBox="0 0 25.278 25.278">
  <g id="insta" transform="translate(0)">
    <path id="Pfad_69" data-name="Pfad 69" d="M18.435,0H6.842A6.85,6.85,0,0,0,0,6.843V18.436a6.85,6.85,0,0,0,6.843,6.842H18.435a6.85,6.85,0,0,0,6.842-6.842V6.843A6.85,6.85,0,0,0,18.435,0ZM23.8,18.436a5.367,5.367,0,0,1-5.361,5.36H6.842a5.367,5.367,0,0,1-5.361-5.36V6.843A5.367,5.367,0,0,1,6.842,1.482H18.435A5.367,5.367,0,0,1,23.8,6.843Zm0,0" transform="translate(0.001 0)" fill="#7b7a78"/>
    <path id="Pfad_70" data-name="Pfad 70" d="M122.916,116a6.912,6.912,0,1,0,6.912,6.912A6.92,6.92,0,0,0,122.916,116Zm0,12.342a5.43,5.43,0,1,1,5.43-5.43A5.436,5.436,0,0,1,122.916,128.346Zm0,0" transform="translate(-110.277 -110.277)" fill="#7b7a78"/>
    <path id="Pfad_71" data-name="Pfad 71" d="M360.019,66.285a2.042,2.042,0,1,0,2.043,2.042A2.045,2.045,0,0,0,360.019,66.285Zm0,2.6a.56.56,0,1,1,.561-.56A.561.561,0,0,1,360.019,68.888Zm0,0" transform="translate(-340.303 -63.013)" fill="#7b7a78"/>
  </g>
</svg>
