<svg xmlns="http://www.w3.org/2000/svg" width="11.747" height="16.226" viewBox="0 0 11.747 16.226">
  <g id="Gruppe_171" data-name="Gruppe 171" transform="translate(320.89 111.002)">
    <path id="Pfad_113" data-name="Pfad 113" d="M-314.6-111c.315.061.635.08.948.159a5.833,5.833,0,0,1,3.794,2.9,5.662,5.662,0,0,1,.709,2.483,7.324,7.324,0,0,1-.685,3.279,23,23,0,0,1-2.693,4.6q-.958,1.32-2.028,2.552a.542.542,0,0,1-.913,0,33.306,33.306,0,0,1-3.706-5.12,14.218,14.218,0,0,1-1.484-3.39,5.724,5.724,0,0,1,.775-4.864,5.751,5.751,0,0,1,3.512-2.443c.312-.078.633-.1.948-.159Zm-.407,8.824a2.951,2.951,0,0,0,2.943-2.983,2.962,2.962,0,0,0-2.945-2.921,2.96,2.96,0,0,0-2.951,2.979A2.954,2.954,0,0,0-315.01-102.178Z" fill="#abbd00"/>
  </g>
</svg>
