<svg id="Gruppe_170" data-name="Gruppe 170" xmlns="http://www.w3.org/2000/svg" width="14.741" height="11.062" viewBox="0 0 14.741 11.062">
  <path id="Pfad_16" data-name="Pfad 16" d="M-998.962,643.753v8c-.006.007-.015.014-.017.022a1.288,1.288,0,0,1-1.336,1.02c-4.021-.012-8.042-.006-12.063-.006a1.232,1.232,0,0,1-1.325-1.329q0-3.757,0-7.514c0-.043,0-.086,0-.13a.307.307,0,0,1,.288-.289.417.417,0,0,1,.292.134c1.966,1.68,3.947,3.341,5.888,5.049a1.444,1.444,0,0,0,.5.308,1.259,1.259,0,0,0,1.3-.3c1.944-1.713,3.93-3.375,5.9-5.058C-999.3,643.459-999.125,643.489-998.962,643.753Z" transform="translate(1013.703 -641.738)" fill="#abbd00"/>
  <path id="Pfad_17" data-name="Pfad 17" d="M-1001.038,593.837h6.132a1.2,1.2,0,0,1,.887.376.34.34,0,0,1-.027.584q-1.079.919-2.16,1.836c-1.422,1.208-2.845,2.415-4.244,3.649-.48.424-.7.426-1.176,0-2.089-1.838-4.223-3.623-6.339-5.429-.04-.034-.082-.067-.12-.1a.314.314,0,0,1-.03-.482,1.181,1.181,0,0,1,.932-.434Z" transform="translate(1008.412 -593.837)" fill="#abbd00"/>
</svg>
