<svg xmlns="http://www.w3.org/2000/svg" width="36" height="36" viewBox="0 0 36 36">
  <g id="Gruppe_178" data-name="Gruppe 178" transform="translate(1480 -22)">
    <g id="Gruppe_161" data-name="Gruppe 161" transform="translate(-2911 -33)">
      <g id="Gruppe_8" data-name="Gruppe 8" transform="translate(-182 -37)">
        <circle id="Ellipse_1" data-name="Ellipse 1" cx="18" cy="18" r="18" transform="translate(1613 92)" fill="#afcb05"/>
      </g>
      <g id="Gruppe_7" data-name="Gruppe 7" transform="translate(1439.341 65.752)">
        <path id="Pfad_16" data-name="Pfad 16" d="M-994.385,643.823v10.489c-.008.01-.02.019-.022.029a1.688,1.688,0,0,1-1.751,1.337c-5.269-.016-10.539-.008-15.808-.008a1.614,1.614,0,0,1-1.737-1.741q0-4.923,0-9.847c0-.057,0-.113,0-.17a.4.4,0,0,1,.377-.378.546.546,0,0,1,.383.175c2.576,2.2,5.173,4.378,7.716,6.617a1.892,1.892,0,0,0,.652.4,1.65,1.65,0,0,0,1.7-.4c2.547-2.244,5.151-4.423,7.731-6.629C-994.827,643.437-994.6,643.477-994.385,643.823Z" transform="translate(1013.703 -641.181)" fill="#fff"/>
        <path id="Pfad_17" data-name="Pfad 17" d="M-998.809,593.838q4.018,0,8.035,0a1.568,1.568,0,0,1,1.163.492.446.446,0,0,1-.036.765q-1.414,1.2-2.831,2.406c-1.863,1.583-3.728,3.165-5.562,4.783-.63.555-.913.558-1.541.005-2.737-2.409-5.534-4.748-8.307-7.115-.053-.045-.107-.087-.158-.135a.411.411,0,0,1-.04-.631,1.548,1.548,0,0,1,1.222-.569Z" transform="translate(1008.474 -593.837)" fill="#fff"/>
      </g>
    </g>
  </g>
</svg>
