<svg xmlns="http://www.w3.org/2000/svg" width="409.423" height="322.502" viewBox="0 0 409.423 322.502">
  <g id="Gruppe_169" data-name="Gruppe 169" transform="matrix(0.809, 0.588, -0.588, 0.809, 203.595, -229.111)" opacity="0.3">
    <path id="Pfad_109" data-name="Pfad 109" d="M191.012,358.29c0-6.718-.167-13.441.076-20.15.11-3.005-.929-4.827-3.248-6.633-19.468-15.159-38.828-30.455-58.256-45.664-2.658-2.08-5.352-4.142-4.75-7.951.628-3.982,3.848-5.251,7.254-6.389q121.4-40.558,242.77-81.18c2.049-.685,4.07-1.594,6.356-1.288,5,.669,7.107,5.657,4.332,10.8-7.037,13.037-14.167,26.023-21.277,39.022q-41.42,75.726-82.85,151.448c-4.59,8.391-7.543,8.922-15.188,2.887-11.155-8.8-22.433-17.453-33.471-26.4-2.514-2.038-4.027-1.741-6.312.1-7.536,6.076-15.222,11.962-22.864,17.9-2.643,2.054-5.314,3.99-8.919,2.07-3.48-1.854-3.735-4.988-3.682-8.423C191.086,371.727,191.012,365.008,191.012,358.29ZM358.848,220.834l-.721-.531-149.5,110.654c19.994,15.709,39.687,31.057,59.2,46.635,3.241,2.588,4.3,2.074,6.176-1.384q37.625-69.214,75.529-138.274Q354.2,229.391,358.848,220.834Zm-18.616-3.969-.4-.689L145.477,281.148c1.634,1.386,2.548,2.215,3.515,2.975,14.979,11.763,30.051,23.408,44.875,35.363,3.018,2.434,4.772,2.388,7.826.114q62.356-46.4,124.91-92.542C331.162,223.682,335.688,220.263,340.231,216.865ZM204.24,367.34c4.772-3.712,8.977-6.979,13.176-10.255.966-.753.916-1.518-.03-2.258-4.194-3.284-8.389-6.567-13.146-10.29Z" transform="translate(4.937)" fill="#fff"/>
    <path id="Pfad_110" data-name="Pfad 110" d="M155.443,365.108c8.348-2.735,16.039-3.272,23.786-1.329,12.2,3.063,20.553,12.913,20.545,24.114-.007,12.025-7.479,22.031-18.7,25.041-13.63,3.658-29.49-4.488-35.783-18.376-2.071-4.573-2.093-4.589-5.234-.651a96.758,96.758,0,0,0-9.915,15.284c-2.628,4.985-6.378,6.679-10.066,4.711s-4.342-5.894-1.754-11.021a90.3,90.3,0,0,1,19.859-26.425,8.809,8.809,0,0,0,3.128-6.428c.888-13.306,6.167-24.99,13.652-35.784,2.816-4.062,6.646-4.957,9.992-2.608,3.292,2.31,3.689,6.108.844,10.3A69.334,69.334,0,0,0,155.443,365.108Zm18.819,35.169a11.738,11.738,0,0,0,11.8-8.79c1.514-5.173-.541-10.06-5.854-12.9-7.831-4.194-15.61-3.107-23.268.728-1.289.645-1.881,1.391-1.621,2.913C156.969,391.916,163.668,400.009,174.262,400.278Z" transform="translate(2.939 35.36)" fill="#fff"/>
    <path id="Pfad_111" data-name="Pfad 111" d="M111.705,436.357a6.439,6.439,0,0,1-6.536-7.789c1.27-5.747,2.942-11.422,4.77-17.02,1.274-3.9,4.53-5.154,8.262-4.08,3.654,1.052,5.267,4.044,4.418,7.663-1.344,5.734-3.016,11.4-4.83,17.008A6.022,6.022,0,0,1,111.705,436.357Z" transform="translate(0 54.553)" fill="#fff"/>
  </g>
</svg>
