<svg xmlns="http://www.w3.org/2000/svg" width="26.037" height="26.037" viewBox="0 0 26.037 26.037">
  <g id="Gruppe_174" data-name="Gruppe 174" transform="translate(-393.963 -412.506)">
    <g id="Gruppe_112" data-name="Gruppe 112" transform="translate(393.962 412.505)">
      <path id="Pfad_103" data-name="Pfad 103" d="M25.774,5.632,15.633.064a.509.509,0,0,0-.489,0l-3.822,2.1a.51.51,0,0,0-.218.12L5,5.632a.508.508,0,0,0-.264.446v6.734A6.775,6.775,0,0,0,.687,22.242.509.509,0,0,0,1.6,21.8a5.749,5.749,0,1,1,2.643,2.643.508.508,0,0,0-.446.914,6.779,6.779,0,0,0,9.155-3.327l2.191,1.2a.508.508,0,0,0,.489,0l10.14-5.568a.509.509,0,0,0,.264-.446V13.68a.509.509,0,1,0-1.017,0v3.233L15.9,21.922V11.946l3.01-1.653v2.621a.509.509,0,0,0,.754.446l2.173-1.2a.508.508,0,0,0,.263-.445V8.541l2.921-1.6V9.612a.509.509,0,1,0,1.017,0V6.078A.508.508,0,0,0,25.774,5.632ZM15.389,1.09l9.084,4.988L21.607,7.651,12.523,2.663Zm0,9.976L6.3,6.078,9.275,4.447l9.084,4.988Zm4.027-2.211L10.332,3.867l1.135-.623,9.084,4.988Zm-7.863,5.631A6.722,6.722,0,0,0,6.768,12.5a6.858,6.858,0,0,0-1.012.075V6.937l9.125,5.011v9.976l-1.584-.87a6.8,6.8,0,0,0,.237-1.784A6.722,6.722,0,0,0,11.553,14.486Zm9.529-3.069-1.156.636V9.735L21.082,9.1Z" transform="translate(0)" fill="#fff"/>
      <path id="Pfad_104" data-name="Pfad 104" d="M491.548,218.514a.509.509,0,1,0,.36.149A.513.513,0,0,0,491.548,218.514Z" transform="translate(-466.018 -207.379)" fill="#fff"/>
      <path id="Pfad_105" data-name="Pfad 105" d="M67.061,323.752a.508.508,0,0,0,.36-.868l-.352-.352h3.006a1.322,1.322,0,0,1,0,2.644H68.293a.508.508,0,1,0,0,1.017h1.781a2.339,2.339,0,1,0,0-4.678H67.068l.352-.352a.509.509,0,0,0-.719-.719l-1.22,1.22a.509.509,0,0,0,0,.719l1.22,1.22A.507.507,0,0,0,67.061,323.752Z" transform="translate(-62.002 -303.973)" fill="#fff"/>
      <path id="Pfad_106" data-name="Pfad 106" d="M36.506,456.06a.506.506,0,0,1-.389-.181h0a.508.508,0,1,1,.39.182Z" transform="translate(-34.163 -431.855)" fill="#fff"/>
    </g>
  </g>
</svg>
