<svg id="Komponente_2_2" data-name="Komponente 2 – 2" xmlns="http://www.w3.org/2000/svg" width="35" height="49" viewBox="0 0 35 49">
  <g id="Gruppe_10" data-name="Gruppe 10" transform="translate(424.082 -496.869)">
    <path id="Pfad_19" data-name="Pfad 19" d="M-406.9,537.838a2.759,2.759,0,0,1-.932-.708q-3.136-3.16-6.278-6.315a1.294,1.294,0,0,1-.076-1.888,1.283,1.283,0,0,1,1.888.049q1.65,1.646,3.288,3.3l1.145,1.153v-.446q0-13.357,0-26.714a1.263,1.263,0,0,1,.689-1.212,1.222,1.222,0,0,1,1.336.084,1.3,1.3,0,0,1,.552,1.163q-.008,9.58,0,19.159v7.9a.746.746,0,0,0,.305-.244c1.377-1.381,2.747-2.769,4.128-4.146a1.288,1.288,0,0,1,2.214.529,1.293,1.293,0,0,1-.4,1.313q-1.942,1.945-3.877,3.9c-.8.805-1.606,1.607-2.4,2.416a2.757,2.757,0,0,1-.933.707Z" transform="translate(0 0)" fill="#8f9083"/>
  </g>
  <g id="Rechteck_13" data-name="Rechteck 13" fill="none" stroke="#8f9083" stroke-width="1">
    <rect width="35" height="49" rx="17.5" stroke="none"/>
    <rect x="0.5" y="0.5" width="34" height="48" rx="17" fill="none"/>
  </g>
</svg>
