<svg xmlns="http://www.w3.org/2000/svg" width="22.983" height="22.979" viewBox="0 0 22.983 22.979">
  <g id="Page-1" transform="translate(0.029 -0.003)">
    <g id="_021---Spanner" data-name="021---Spanner" transform="translate(-0.029 0.003)">
      <path id="Shape" d="M43.336,404.673a1.536,1.536,0,0,0,1.088-.45.383.383,0,0,0-.542-.542.773.773,0,1,1,0-1.094.383.383,0,0,0,.542-.542,1.539,1.539,0,1,0-1.088,2.627Z" transform="translate(-39.918 -383.571)" fill="#fff"/>
      <path id="Shape-2" data-name="Shape" d="M122.607,367.782a.383.383,0,0,0,.271-.112l.272-.272a.383.383,0,0,0-.542-.542l-.272.272a.383.383,0,0,0,.271.654Z" transform="translate(-116.738 -350.288)" fill="#fff"/>
      <path id="Shape-3" data-name="Shape" d="M152.961,233.039a.383.383,0,0,0,.271-.112l5.178-5.178a.383.383,0,0,0-.542-.542l-5.178,5.178a.383.383,0,0,0,.271.654Z" transform="translate(-145.728 -216.908)" fill="#fff"/>
      <path id="Shape-4" data-name="Shape" d="M-.028,19.6a3.294,3.294,0,0,0,3.294,3.386H3.36a3.271,3.271,0,0,0,2.37-1.1L15.88,10.517a5.389,5.389,0,0,0,7-5.982.775.775,0,0,0-.528-.617.76.76,0,0,0-.776.188L18.593,7.093a.387.387,0,0,1-.316.111L16.31,6.99a.39.39,0,0,1-.345-.345l-.214-1.966a.387.387,0,0,1,.111-.316L18.85,1.376A.763.763,0,0,0,19.037.6.775.775,0,0,0,18.42.072a5.389,5.389,0,0,0-5.982,7L1.073,17.226a3.271,3.271,0,0,0-1.1,2.37Zm1.609-1.8L13.14,7.477a.383.383,0,0,0,.1-.423A4.62,4.62,0,0,1,18.307.835L15.32,3.822a1.149,1.149,0,0,0-.331.941L15.2,6.729a1.147,1.147,0,0,0,1.022,1.022l1.965.214a1.146,1.146,0,0,0,.941-.331l2.994-2.977A4.624,4.624,0,0,1,15.9,9.712a.383.383,0,0,0-.423.1L5.157,21.37A2.53,2.53,0,1,1,1.585,17.8Z" transform="translate(0.029 -0.003)" fill="#fff"/>
    </g>
  </g>
</svg>
