<svg xmlns="http://www.w3.org/2000/svg" width="208" height="208" viewBox="0 0 208 208">
  <g id="Gruppe_180" data-name="Gruppe 180" transform="translate(1520 -383)">
    <g id="Komponente_3_5" data-name="Komponente 3 – 5" transform="translate(-1520 383)">
      <path id="Rechteck_18" data-name="Rechteck 18" d="M40,0H168a40,40,0,0,1,40,40V208a0,0,0,0,1,0,0H40A40,40,0,0,1,0,168V40A40,40,0,0,1,40,0Z" fill="#f7fae5"/>
    </g>
    <g id="Gruppe_166" data-name="Gruppe 166" transform="translate(-1457.393 444.18)">
      <path id="Pfad_20" data-name="Pfad 20" d="M628.552,485.238c-2.126-1.226-4.381-2.191-6.586-3.259Q605.5,474,589,466.073a1.87,1.87,0,0,1-1.189-1.936q.033-22.9,0-45.79a1.868,1.868,0,0,1,1.2-1.928q19.544-9.4,39.06-18.85a2.111,2.111,0,0,1,2.023.013q19.511,9.442,39.04,18.843a1.822,1.822,0,0,1,1.179,1.858q-.032,22.938,0,45.876a1.877,1.877,0,0,1-1.207,1.93q-19.339,9.3-38.657,18.649a2.21,2.21,0,0,0-.875.5ZM667.725,420a2.542,2.542,0,0,0-.343.093c-3.679,1.772-7.351,3.558-11.041,5.305-.485.23-.479.556-.478.962,0,4.753-.019,9.506.019,14.259a1.933,1.933,0,0,1-1.257,2c-2.922,1.369-5.819,2.789-8.726,4.189a3.56,3.56,0,0,1-.546.247c-1.052.3-1.749-.347-1.751-1.661-.009-4.7-.019-9.392.013-14.088a1.281,1.281,0,0,0-.838-1.362q-17.494-8.411-34.968-16.863c-.952-.459-1.91-1.269-2.861-1.264-.984.005-1.97.793-2.944,1.261q-4.856,2.335-9.713,4.69a1.43,1.43,0,0,0,.739.486l23.449,11.329c1.182.571,2.376,1.121,3.538,1.731a1.242,1.242,0,0,1,.59,1.688,1.3,1.3,0,0,1-1.662.666,5.1,5.1,0,0,1-.619-.291q-13.506-6.518-27.015-13.033c-.271-.13-.522-.357-.875-.294-.008.121-.023.235-.023.349q0,21.389-.021,42.778c0,.649.343.813.785,1.027q17.089,8.246,34.174,16.5c.762.368,1.529.723,2.384,1.126V455.078c0-5.44-.011-10.881.015-16.321a1.1,1.1,0,0,0-.777-1.218,28.051,28.051,0,0,1-2.548-1.225,1.246,1.246,0,0,1-.675-1.713,1.288,1.288,0,0,1,1.805-.621,9.463,9.463,0,0,1,1.7.818,3.1,3.1,0,0,0,3.609.042c2.3-1.264,4.711-2.327,7.083-3.456a1.315,1.315,0,0,1,2.032.8c.182.822-.31,1.271-.983,1.6-2.573,1.24-5.131,2.511-7.723,3.708a1.306,1.306,0,0,0-.887,1.407q.038,20.959.023,41.919a1.775,1.775,0,0,0,.108.962c.184-.083.362-.158.536-.242q18.022-8.7,36.052-17.381a1.024,1.024,0,0,0,.632-1.127q-.015-21.131-.008-42.263Zm-49.143-14.923a1.867,1.867,0,0,0,.856.547q17.615,8.515,35.23,17.03a1.466,1.466,0,0,0,1.436-.022c3.025-1.484,6.065-2.938,9.1-4.408.224-.109.5-.158.644-.463q-3.892-1.881-7.78-3.76l-28.315-13.665c-.351-.169-.649-.368-1.1-.144C625.317,401.83,621.973,403.435,618.582,405.075Zm33.752,19.362c-.49-.248-.789-.4-1.092-.551L637.817,417.4q-10.84-5.236-21.681-10.469c-.3-.146-.6-.354-.968-.172-2.348,1.147-4.7,2.289-7.084,3.451a1.6,1.6,0,0,0,.251.214q18.049,8.716,36.1,17.428a.724.724,0,0,0,.718.048C647.482,426.763,649.823,425.645,652.334,424.437Zm-6.1,19.3c2.331-1.124,4.509-2.179,6.692-3.221.326-.156.332-.413.332-.708q-.005-6.136,0-12.272c0-.507-.128-.589-.582-.366-2,.983-4,1.946-6.01,2.907a.629.629,0,0,0-.444.635C646.239,435,646.235,439.287,646.235,443.734Z" transform="translate(-587.815 -397.318)" fill="#8f9083"/>
      <path id="Pfad_21" data-name="Pfad 21" d="M625.673,632.624a1.332,1.332,0,0,1-2.045,1.119c-1.32-.611-2.623-1.26-3.934-1.892q-3.431-1.655-6.862-3.31c-.918-.445-1.241-1.108-.917-1.828.347-.772,1.1-.984,2.039-.532,3.575,1.715,7.142,3.445,10.715,5.162A1.554,1.554,0,0,1,625.673,632.624Z" transform="translate(-606.289 -573.464)" fill="#8f9083"/>
      <path id="Pfad_22" data-name="Pfad 22" d="M620.22,656.537a1.249,1.249,0,0,1-1.65,1.277c-2.074-.937-4.122-1.934-6.154-2.961a1.2,1.2,0,0,1-.48-1.7,1.227,1.227,0,0,1,1.669-.565c1.986.926,3.957,1.884,5.926,2.846A1.143,1.143,0,0,1,620.22,656.537Z" transform="translate(-606.268 -593.888)" fill="#8f9083"/>
    </g>
  </g>
</svg>
