<svg xmlns="http://www.w3.org/2000/svg" width="97.928" height="15.853" viewBox="0 0 97.928 15.853">
  <g id="Gruppe_172" data-name="Gruppe 172" transform="translate(0)">
    <path id="Pfad_53" data-name="Pfad 53" d="M1574.627,241.3l2.576,5.219,5.759.837-4.167,4.062.984,5.736-5.151-2.708-5.151,2.708.984-5.736-4.167-4.062,5.759-.837Z" transform="translate(-1566.293 -241.298)" fill="#ffd400"/>
    <path id="Pfad_54" data-name="Pfad 54" d="M1606.733,241.3l2.576,5.219,5.758.837-4.167,4.062.984,5.736-5.151-2.708-5.151,2.708.984-5.736-4.167-4.062,5.759-.837Z" transform="translate(-1578.024 -241.298)" fill="#ffd400"/>
    <path id="Pfad_55" data-name="Pfad 55" d="M1638.84,241.3l2.575,5.219,5.759.837-4.167,4.062.984,5.736-5.151-2.708-5.151,2.708.984-5.736-4.167-4.062,5.759-.837Z" transform="translate(-1589.754 -241.298)" fill="#ffd400"/>
    <path id="Pfad_56" data-name="Pfad 56" d="M1670.883,241.3l2.575,5.219,5.759.837-4.167,4.062.984,5.736-5.151-2.708-5.151,2.708.984-5.736-4.167-4.062,5.759-.837Z" transform="translate(-1601.462 -241.298)" fill="#ffd400"/>
    <path id="Pfad_57" data-name="Pfad 57" d="M1702.67,241.3l2.575,5.219,5.759.837-4.167,4.062.984,5.736-5.151-2.708-5.151,2.708.984-5.736-4.167-4.062,5.759-.837Z" transform="translate(-1613.076 -241.298)" fill="#ffd400"/>
  </g>
</svg>
