<svg xmlns="http://www.w3.org/2000/svg" width="25.775" height="25.773" viewBox="0 0 25.775 25.773">
  <path id="Pfad_122" data-name="Pfad 122" d="M-246.49,369.963a1.5,1.5,0,0,1-.493.64,1.072,1.072,0,0,1-1.224-.05,2.745,2.745,0,0,1-.279-.254q-3.479-3.477-6.953-6.958c-.158-.158-.25-.194-.445-.042a9.789,9.789,0,0,1-4.433,1.951,9.987,9.987,0,0,1-5.958-.767,10.13,10.13,0,0,1-4.185-3.51,9.981,9.981,0,0,1-1.7-4.377,9.971,9.971,0,0,1,1.109-6.195,10.056,10.056,0,0,1,4.382-4.294,9.711,9.711,0,0,1,3.686-1.067.654.654,0,0,0,.14-.043h1.56a.381.381,0,0,0,.217.049,9.629,9.629,0,0,1,3.924,1.217,10.134,10.134,0,0,1,4.367,4.71,9.966,9.966,0,0,1,.775,5.957,9.832,9.832,0,0,1-1.946,4.436c-.142.184-.143.279.026.447q3.452,3.433,6.891,6.878a2.127,2.127,0,0,1,.545.768Zm-7.53-14.753A8.049,8.049,0,0,0-262,347.158a8.051,8.051,0,0,0-8.1,8,8.048,8.048,0,0,0,8.031,8.077A8.048,8.048,0,0,0-254.019,355.211Z" transform="translate(272.264 -344.998)" fill="#fff"/>
</svg>
