<svg xmlns="http://www.w3.org/2000/svg" width="208" height="208" viewBox="0 0 208 208">
  <g id="Gruppe_182" data-name="Gruppe 182" transform="translate(992 -387)">
    <g id="Komponente_3_7" data-name="Komponente 3 – 7" transform="translate(-992 387)">
      <path id="Rechteck_18" data-name="Rechteck 18" d="M40,0H168a40,40,0,0,1,40,40V208a0,0,0,0,1,0,0H40A40,40,0,0,1,0,168V40A40,40,0,0,1,40,0Z" fill="#f7fae5"/>
    </g>
    <path id="Pfad_123" data-name="Pfad 123" d="M173.521,666.826c.182-.988.337-1.983.552-2.964a7.215,7.215,0,0,1,3.3-4.735q3.057-1.914,6.179-3.724a2.969,2.969,0,0,1,4.194.96q4.794,7.14,9.54,14.312a2.963,2.963,0,0,1-.664,4.2c-1.647,1.326-3.336,2.6-5,3.905s-1.887,2.628-.934,4.482c2.671,5.2,6.509,9.473,10.6,13.546a58.615,58.615,0,0,0,9.525,8.041c1.284.824,2.622,1.57,3.97,2.287a2.9,2.9,0,0,0,3.8-.818c1.291-1.618,2.551-3.26,3.818-4.9,1.477-1.907,2.949-2.157,4.94-.83l13.584,9.051c1.914,1.276,2.266,2.815,1.09,4.778-1.027,1.717-2.1,3.406-3.078,5.151a8.209,8.209,0,0,1-6.428,4.251c-.574.081-1.144.186-1.716.28h-3.647a3.368,3.368,0,0,0-.378-.115c-1.477-.268-2.98-.44-4.429-.814a46.041,46.041,0,0,1-14.592-7.079,109.49,109.49,0,0,1-18.876-16.987,76.047,76.047,0,0,1-11.057-15.341,36.717,36.717,0,0,1-3.515-9.075c-.314-1.395-.526-2.812-.784-4.219Z" transform="translate(-1096.109 -197.509)" fill="none" stroke="#8f9083" stroke-width="3"/>
  </g>
</svg>
