<svg xmlns="http://www.w3.org/2000/svg" width="208" height="208" viewBox="0 0 208 208">
  <g id="Gruppe_181" data-name="Gruppe 181" transform="translate(1260 -383)">
    <g id="Komponente_3_6" data-name="Komponente 3 – 6" transform="translate(-1260 383)">
      <path id="Rechteck_18" data-name="Rechteck 18" d="M40,0H168a40,40,0,0,1,40,40V208a0,0,0,0,1,0,0H40A40,40,0,0,1,0,168V40A40,40,0,0,1,40,0Z" fill="#f7fae5"/>
    </g>
    <g id="Gruppe_167" data-name="Gruppe 167" transform="translate(-1833.069 351.215)">
      <path id="Pfad_23" data-name="Pfad 23" d="M621.11,154.4a3.034,3.034,0,0,1,2.678-1.078c4.99.041,9.981.018,14.972.018.182,0,.364,0,.546,0,1.348.032,2.135.7,2.129,1.815s-.776,1.761-2.158,1.78c-1.53.021-3.06.006-4.59.006-2.6,0-2.542,0-2.611,2.645-.027,1.042.319,1.279,1.294,1.256,2.621-.061,5.245-.04,7.868-.008a1.274,1.274,0,0,0,1.4-.851c2.01-4.234,5.424-6.582,10.091-6.592,4.708-.01,8.161,2.32,10.181,6.615a1.227,1.227,0,0,0,1.313.828q17.158-.028,34.315.006c.877,0,1.084-.261,1.075-1.1-.042-3.97-.028-7.941-.012-11.912a1.78,1.78,0,0,1,1.778-1.935,1.76,1.76,0,0,1,1.739,1.849c.018.327.01.656.01.983,0,3.643-.009,7.286.014,10.928,0,.382-.286.965.322,1.121.687.175.686-.515.875-.895,2.074-4.161,5.451-6.471,10.068-6.488a10.632,10.632,0,0,1,10.14,6.515,1.32,1.32,0,0,0,1.465.93c.906-.062,1.821-.031,2.731-.009.513.012.806-.084.8-.709-.032-2.076-.025-4.153,0-6.229.006-.524-.179-.7-.692-.7a17.508,17.508,0,0,1-2.179-.1,5.338,5.338,0,0,1-4.556-4.741c-.1-1.451-.083-2.913-.047-4.368a1.681,1.681,0,0,1,1.872-1.806c1.457-.024,2.916-.048,4.371.008.9.035.892-.284.526-.924a5.468,5.468,0,0,0-4.872-3.009c-6.666-.059-13.332-.012-20-.038-.7,0-.9.237-.842.884a6.111,6.111,0,0,1-.027,1.309,1.6,1.6,0,0,1-1.675,1.532,1.658,1.658,0,0,1-1.784-1.431,4.723,4.723,0,0,1-.036-1.089c0-9.981-.016-19.963.022-29.944,0-.967-.239-1.2-1.2-1.2q-32.566.045-65.133,0c-1,0-1.2.3-1.2,1.233.032,9.872.02,19.744.019,29.616a11.993,11.993,0,0,1-.031,1.2,1.68,1.68,0,0,1-1.712,1.622,1.74,1.74,0,0,1-1.787-1.569,6.588,6.588,0,0,1-.017-.873q0-15.245,0-30.49c0-2.828,1.392-4.221,4.214-4.221h66.226c2.718,0,4.1,1.367,4.13,4.066.007.765.054,1.535-.013,2.294-.075.847.192,1.117,1.075,1.106,3.824-.05,7.652.062,11.474-.043,4.551-.126,8.807,3.089,7.992,9.574a1.26,1.26,0,0,1-.639,1.083c-.717.285-.606.754-.47,1.295q1.218,4.859,2.424,9.722a1.291,1.291,0,0,0,1.1,1.107,9.118,9.118,0,0,1,6.957,8.929q.014,9.125,0,18.25c0,1.612-.623,2.241-2.234,2.252-1.421.01-2.842.025-4.262-.008-.636-.015-.925.078-.993.852a11.112,11.112,0,0,1-22.162.1c-.084-.876-.4-.958-1.119-.958q-18.633.026-37.266-.007c-.835,0-1.054.237-1.163,1.059-.818,6.166-5.388,10.205-11.373,10.133a11.107,11.107,0,0,1-10.75-10.214c-.052-.876-.349-.985-1.093-.974-2.659.038-5.318.022-7.977.013a3.73,3.73,0,0,1-4.079-4.066c0-.874-.035-1.75.01-2.622.033-.631-.206-.818-.814-.8-1.274.036-2.552-.036-3.824.024a3.167,3.167,0,0,1-2.817-1.025ZM712.3,134.7c2.659,0,5.319-.032,7.978.018.92.017,1.285-.072.984-1.159-.862-3.112-1.629-6.251-2.365-9.4-.161-.692-.445-.86-1.1-.857q-6.885.033-13.77,0c-.733,0-.927.232-.92.935.031,3.169.037,6.339,0,9.508-.01.783.251.981,1,.971C706.839,134.675,709.571,134.7,712.3,134.7Zm-59.566,22.265a7.572,7.572,0,0,0-7.553,7.559,7.68,7.68,0,0,0,7.614,7.553,7.573,7.573,0,0,0,7.5-7.613A7.448,7.448,0,0,0,652.737,156.964Zm61.676,0a7.5,7.5,0,0,0-7.516,7.568,7.561,7.561,0,1,0,15.122-.079A7.524,7.524,0,0,0,714.413,156.964Zm-2.8-37.274c2.583,0,5.167-.023,7.75.014.753.011.857-.274.7-.912a3.808,3.808,0,0,0-3.926-2.967c-3.384-.027-6.768-.008-10.151-.008-2.913,0-2.887,0-2.88,2.9,0,.751.2,1.005.976.992C706.594,119.663,709.1,119.69,711.615,119.69Zm17.909,27.942c0-1.945,0-1.945-1.934-1.945-.109,0-.218,0-.327,0-1.906.055-1.672-.4-1.671,1.761,0,1.611.8,2.122,2.915,2.178,1.728.046.763-1.217,1.016-1.886A.329.329,0,0,0,729.524,147.632Z" fill="#8f9083"/>
      <path id="Pfad_24" data-name="Pfad 24" d="M789.509,274.656q-6.116,0-12.232,0a6.1,6.1,0,0,1-1.086-.063,1.665,1.665,0,0,1-1.506-1.728,1.713,1.713,0,0,1,1.5-1.752,4.868,4.868,0,0,1,1.087-.053q12.287,0,24.574,0a3.318,3.318,0,0,1,1.4.16,1.681,1.681,0,0,1,1.125,1.8,1.6,1.6,0,0,1-1.324,1.53,5.91,5.91,0,0,1-1.3.106Q795.625,274.663,789.509,274.656Z" transform="translate(-108.728 -117.714)" fill="#8f9083"/>
      <path id="Pfad_25" data-name="Pfad 25" d="M646.874,245.53c3.637,0,7.275-.011,10.912,0,1.6.007,2.52,1.341,1.833,2.606a1.7,1.7,0,0,1-1.614.918q-11.13,0-22.26-.006a1.715,1.715,0,0,1-1.877-1.8,1.782,1.782,0,0,1,1.986-1.717C639.527,245.521,643.2,245.53,646.874,245.53Z" transform="translate(-9.031 -99.642)" fill="#8f9083"/>
      <path id="Pfad_26" data-name="Pfad 26" d="M724.3,300.338a3.655,3.655,0,1,1-3.648-3.607A3.713,3.713,0,0,1,724.3,300.338Z" transform="translate(-67.882 -135.894)" fill="#8f9083"/>
      <path id="Pfad_27" data-name="Pfad 27" d="M931.892,296.733a3.657,3.657,0,1,1-3.71,3.557A3.724,3.724,0,0,1,931.892,296.733Z" transform="translate(-217.399 -135.895)" fill="#8f9083"/>
    </g>
  </g>
</svg>
