<svg xmlns="http://www.w3.org/2000/svg" width="29.08" height="18.395" viewBox="0 0 29.08 18.395">
  <g id="shipping" transform="translate(0 -94.062)">
    <g id="Gruppe_50" data-name="Gruppe 50" transform="translate(0 94.062)">
      <g id="Gruppe_49" data-name="Gruppe 49" transform="translate(0 0)">
        <path id="Pfad_63" data-name="Pfad 63" d="M27.044,101.86l-.753-3.012a.455.455,0,0,0,.36-.445v-.486A1.915,1.915,0,0,0,24.739,96h-3.43V95a.942.942,0,0,0-.941-.941H2.884A.942.942,0,0,0,1.943,95v8.257a.455.455,0,1,0,.911,0V95a.03.03,0,0,1,.03-.03H20.368a.03.03,0,0,1,.03.03v8.257a.455.455,0,0,0,.911,0v-.516h5.374a1.49,1.49,0,0,1,1.415,1.032H26.682a.455.455,0,0,0-.455.455v.971a1.428,1.428,0,0,0,1.427,1.427h.516v2H26.979a2.883,2.883,0,0,0-5.45,0h-.219V105.2a.455.455,0,0,0-.911,0v3.43H10.951a2.883,2.883,0,0,0-5.45,0H2.884a.03.03,0,0,1-.03-.03v-1H4.826a.455.455,0,0,0,0-.911H.455a.455.455,0,0,0,0,.911H1.943v1a.942.942,0,0,0,.941.941h2.46c0,.01,0,.02,0,.03a2.884,2.884,0,0,0,5.767,0c0-.01,0-.02,0-.03H21.371c0,.01,0,.02,0,.03a2.884,2.884,0,0,0,5.767,0c0-.01,0-.02,0-.03h1.488a.455.455,0,0,0,.455-.455v-4.857A2.4,2.4,0,0,0,27.044,101.86Zm-5.735-4.945h3.43a1,1,0,0,1,1,1v.03H21.309Zm0,4.917V98.858h4.046l.744,2.975h-4.79ZM8.226,111.547a1.973,1.973,0,1,1,1.973-1.973A1.975,1.975,0,0,1,8.226,111.547Zm16.027,0a1.973,1.973,0,1,1,1.973-1.973A1.975,1.975,0,0,1,24.254,111.547Zm3.916-5.828h-.516a.517.517,0,0,1-.516-.516v-.516h1.032v1.032Z" transform="translate(0 -94.062)" fill="#fff"/>
      </g>
    </g>
    <g id="Gruppe_52" data-name="Gruppe 52" transform="translate(7.285 108.632)">
      <g id="Gruppe_51" data-name="Gruppe 51">
        <path id="Pfad_64" data-name="Pfad 64" d="M129.208,350.6a.941.941,0,1,0,.941.941A.942.942,0,0,0,129.208,350.6Z" transform="translate(-128.267 -350.597)" fill="#fff"/>
      </g>
    </g>
    <g id="Gruppe_54" data-name="Gruppe 54" transform="translate(23.313 108.632)">
      <g id="Gruppe_53" data-name="Gruppe 53">
        <path id="Pfad_65" data-name="Pfad 65" d="M411.4,350.6a.941.941,0,1,0,.941.941A.942.942,0,0,0,411.4,350.6Z" transform="translate(-410.455 -350.597)" fill="#fff"/>
      </g>
    </g>
    <g id="Gruppe_56" data-name="Gruppe 56" transform="translate(11.656 106.69)">
      <g id="Gruppe_55" data-name="Gruppe 55" transform="translate(0 0)">
        <path id="Pfad_66" data-name="Pfad 66" d="M212.482,316.393h-6.8a.455.455,0,1,0,0,.911h6.8a.455.455,0,1,0,0-.911Z" transform="translate(-205.227 -316.393)" fill="#fff"/>
      </g>
    </g>
    <g id="Gruppe_58" data-name="Gruppe 58" transform="translate(0.971 104.747)">
      <g id="Gruppe_57" data-name="Gruppe 57">
        <path id="Pfad_67" data-name="Pfad 67" d="M23.386,282.188H17.557a.455.455,0,1,0,0,.911h5.828a.455.455,0,1,0,0-.911Z" transform="translate(-17.102 -282.188)" fill="#fff"/>
      </g>
    </g>
  </g>
</svg>
