<svg xmlns="http://www.w3.org/2000/svg" width="36" height="36" viewBox="0 0 36 36">
  <g id="Gruppe_163" data-name="Gruppe 163" transform="translate(-1601 -42)">
    <circle id="Ellipse_2" data-name="Ellipse 2" cx="18" cy="18" r="18" transform="translate(1601 42)" fill="#afcb05"/>
    <g id="Gruppe_3" data-name="Gruppe 3" transform="translate(1612.211 52.303)">
      <path id="Pfad_13" data-name="Pfad 13" d="M-393.647-41.892h.721a.164.164,0,0,0,.1.031,3.051,3.051,0,0,1,2.463,1.973,3.487,3.487,0,0,1,.2,1.489c0,.122.035.148.15.147.711-.005,1.422,0,2.133,0a.438.438,0,0,1,.5.449c.039.418.067.838.1,1.257q.065.823.132,1.646.084,1.04.169,2.079.081,1,.161,2,.084,1.04.17,2.079c.046.558.075,1.119.142,1.674a.471.471,0,0,1-.5.568q-6.287-.012-12.574,0a.469.469,0,0,1-.5-.568c.055-.441.077-.887.113-1.331q.066-.823.132-1.646.084-1.032.168-2.064c.045-.553.088-1.107.133-1.661q.083-1.032.168-2.064c.053-.663.1-1.327.159-1.99a.432.432,0,0,1,.489-.433c.706,0,1.412,0,2.118,0,.112,0,.145-.029.143-.142a4.514,4.514,0,0,1,.034-.838,3.1,3.1,0,0,1,1.959-2.447A5.223,5.223,0,0,1-393.647-41.892Zm.331,3.637h2.179c.063,0,.146.031.142-.091-.007-.225.012-.452-.011-.676a2.249,2.249,0,0,0-2.223-2.031,2.256,2.256,0,0,0-2.18,1.339,2.812,2.812,0,0,0-.212,1.32c0,.11.027.144.142.143C-394.759-38.257-394.038-38.255-393.317-38.255Z" transform="translate(400.076 41.892)" fill="#fff"/>
    </g>
  </g>
</svg>
