<svg xmlns="http://www.w3.org/2000/svg" width="19.399" height="22" viewBox="0 0 19.399 22">
  <path id="shopping_bag" data-name="shopping bag" d="M35.882,21.317,34.624,5.748a.591.591,0,0,0-.59-.544H30.657V4.456A4.438,4.438,0,0,0,26.228,0h-.078a4.483,4.483,0,0,0-4.482,4.456V5.2H18.343a.591.591,0,0,0-.59.544L16.491,21.361a.591.591,0,0,0,.59.639H35.3a.592.592,0,0,0,.584-.683ZM22.85,4.456a3.3,3.3,0,0,1,3.3-3.273h.078a3.254,3.254,0,0,1,3.247,3.273V5.2H22.85Z" transform="translate(-16.49)" fill="#fff"/>
</svg>
