<svg id="Gruppe_173" data-name="Gruppe 173" xmlns="http://www.w3.org/2000/svg" width="22.96" height="20.404" viewBox="0 0 22.96 20.404">
  <g id="Gruppe_114" data-name="Gruppe 114" transform="translate(0 0)">
    <path id="Pfad_107" data-name="Pfad 107" d="M21.951,37.019h-.336v-4.6a2.133,2.133,0,0,0-2.13-2.13H10.248l-6.232-1.78H4.011l-.005,0-.011,0-.017,0-.016,0-.018,0H3.9l-.019,0-.013,0-.019,0-.012,0-.019.006-.011,0-.019.008-.01,0-.019.01-.009.006-.018.012-.009.007-.016.013-.009.008-.014.014-.008.01-.012.015-.008.011-.01.015-.008.013-.008.015-.007.015-.006.015-.006.017,0,.011v.005l0,.005-.385,1.539H2.13A2.132,2.132,0,0,0,0,32.416s0,0,0,.007V44.082a.336.336,0,0,0,.673,0V33.974a2.122,2.122,0,0,0,1.458.579H19.486a1.459,1.459,0,0,1,1.456,1.457v2.354h-3.73l-.032,0h0l-.026.007h-.006l-.022.008-.009,0L17.1,38.4l-.012.006-.014.008-.015.009-.009.007-.017.013-.007.006L17,38.463l-.009.01-.013.014-.02.026h0l-1.794,2.691a.331.331,0,0,0-.031.059c0,.008-.006.016-.008.023l0,.007c0,.008,0,.017-.006.025l0,.007c0,.008,0,.015,0,.023s0,.006,0,.01,0,.012,0,.019,0,.01,0,.014,0,.009,0,.014,0,.013,0,.019v.009c0,.008,0,.015,0,.023l0,.006c0,.008,0,.017.006.025l0,.007c0,.008.005.016.008.023a.335.335,0,0,0,.032.059l1.794,2.69h0a.348.348,0,0,0,.023.031l.008.009.018.018.011.01.02.016.009.007.031.019.008,0,.026.012.011,0,.026.008.011,0,.028.005.01,0,.035,0h3.7v2.355a1.459,1.459,0,0,1-1.457,1.458H2.13A1.459,1.459,0,0,1,.673,46.773s0,0,0-.005V45.427a.336.336,0,0,0-.673,0v1.346s0,.007,0,.01A2.132,2.132,0,0,0,2.13,48.9H19.485a2.133,2.133,0,0,0,2.13-2.13h0V44.419h.336A1.01,1.01,0,0,0,22.96,43.41V38.028A1.01,1.01,0,0,0,21.951,37.019ZM4.166,29.254l5.935,1.7h0l3.977,1.136H3.458Zm16.776,5.2a2.122,2.122,0,0,0-1.457-.579H2.13a1.457,1.457,0,0,1,0-2.915h.915l-.28,1.121H2.13a.336.336,0,1,0,0,.673H19.036a.336.336,0,0,0,0-.673H16.527L12.6,30.965h6.883a1.459,1.459,0,0,1,1.457,1.457Zm1.345,8.951h0a.337.337,0,0,1-.336.336H17.422l-1.569-2.354,1.569-2.354h4.543a1,1,0,0,0,.322-.057v4.43Zm-.336-5.045h-.336v-.673h.336a.336.336,0,0,1,0,.672Z" transform="translate(0 -28.499)" fill="#fff"/>
  </g>
</svg>
